# xmcd
#
# Track frame offsets:
#	150
#	17477
#	31412
#	47585
#	61725
#	76555
#	91352
#	107195
#	122422
#	139727
#	157940
#	175807
#	191042
#
# Disc length: 2767 seconds
#
# Revision: 8
# Processed by: cddbd v1.5.2PL0 Copyright (c) Steve Scherf et al.
# Submitted via: audiograbber 1.83.01
#
DISCID=950acd0d
DTITLE=Ant, Adam - Hits
DYEAR=1985
DGENRE=Rock
TTITLE0=Kings of the wild frontier
TTITLE1=Dog eat dog
TTITLE2=Antmusic
TTITLE3=Stand and deliver
TTITLE4=Prince charming
TTITLE5=Ant rap
TTITLE6=Goody two shoes
TTITLE7=Friend or foe
TTITLE8=Desperate but not serious
TTITLE9=Puss'n boots
TTITLE10=Strip
TTITLE11=Apollo 9
TTITLE12=Vive le rock
EXTD=
EXTT0=
EXTT1=
EXTT2=
EXTT3=
EXTT4=
EXTT5=
EXTT6=
EXTT7=
EXTT8=
EXTT9=
EXTT10=
EXTT11=
EXTT12=
PLAYORDER=
